<svg width="3645" height="1331" viewBox="0 0 3645 1331" fill="none" xmlns="http://www.w3.org/2000/svg">
<rect y="167" width="169.358" height="999" fill="white"/>
<rect x="613.794" y="586.715" width="159.569" height="530.655" transform="rotate(90 613.794 586.715)" fill="white"/>
<path d="M976.73 1166C907.124 1166 838.199 1153.08 773.891 1127.98C709.584 1102.88 651.152 1066.08 601.933 1019.7C552.714 973.317 513.671 918.252 487.034 857.65C460.397 797.048 446.687 732.095 446.687 666.5C446.687 600.905 460.397 535.952 487.034 475.35C513.671 414.747 552.714 359.683 601.933 313.3C651.152 266.917 709.584 230.124 773.891 205.022C838.199 179.92 907.124 167 976.73 167L976.73 323.541C928.938 323.541 881.614 332.412 837.46 349.647C793.306 366.883 753.187 392.145 719.393 423.991C685.599 455.838 658.792 493.646 640.503 535.255C622.213 576.865 612.8 621.462 612.8 666.5C612.8 711.538 622.213 756.135 640.503 797.745C658.792 839.354 685.599 877.162 719.393 909.009C753.187 940.855 793.306 966.117 837.46 983.353C881.614 1000.59 928.938 1009.46 976.73 1009.46V1166Z" fill="white"/>
<path d="M1369.46 542V159.8H1443.17V542H1369.46ZM1128.67 542V159.8H1202.38V542H1128.67ZM1192.01 376.562V317.048H1382.02V376.562H1192.01ZM1694.8 548.552C1657.68 548.552 1624.92 540.18 1596.52 523.436C1568.13 506.692 1545.93 483.578 1529.91 454.094C1513.9 424.246 1505.89 389.848 1505.89 350.9C1505.89 311.952 1513.9 277.736 1529.91 248.252C1545.93 218.404 1568.13 195.108 1596.52 178.364C1624.92 161.62 1657.68 153.248 1694.8 153.248C1732.3 153.248 1765.24 161.62 1793.63 178.364C1822.02 195.108 1844.04 218.404 1859.7 248.252C1875.71 277.736 1883.72 311.952 1883.72 350.9C1883.72 389.848 1875.71 424.246 1859.7 454.094C1844.04 483.578 1822.02 506.692 1793.63 523.436C1765.24 540.18 1732.3 548.552 1694.8 548.552ZM1694.8 482.486C1718.1 482.486 1738.12 477.208 1754.86 466.652C1771.97 455.732 1785.26 440.444 1794.72 420.788C1804.19 401.132 1808.92 377.836 1808.92 350.9C1808.92 323.6 1804.19 300.304 1794.72 281.012C1785.26 261.356 1771.97 246.25 1754.86 235.694C1738.12 225.138 1718.1 219.86 1694.8 219.86C1671.87 219.86 1651.85 225.138 1634.74 235.694C1617.64 246.25 1604.35 261.356 1594.89 281.012C1585.42 300.304 1580.69 323.6 1580.69 350.9C1580.69 377.836 1585.42 401.132 1594.89 420.788C1604.35 440.444 1617.64 455.732 1634.74 466.652C1651.85 477.208 1671.87 482.486 1694.8 482.486ZM1946.61 542V159.8H2089.11C2120.05 159.8 2145.53 165.078 2165.55 175.634C2185.57 186.19 2200.5 200.386 2210.33 218.222C2220.15 235.694 2225.07 255.168 2225.07 276.644C2225.07 297.028 2220.34 316.138 2210.87 333.974C2201.41 351.446 2186.48 365.642 2166.1 376.562C2146.08 387.118 2120.24 392.396 2088.57 392.396H2020.32V542H1946.61ZM2144.81 542L2066.18 373.832H2145.9L2228.89 542H2144.81ZM2020.32 338.888H2084.75C2106.95 338.888 2123.33 333.428 2133.89 322.508C2144.44 311.588 2149.72 297.21 2149.72 279.374C2149.72 261.538 2144.44 247.524 2133.89 237.332C2123.69 226.776 2107.31 221.498 2084.75 221.498H2020.32V338.888ZM2265.39 542L2405.17 159.8H2488.71L2627.94 542H2549.86L2446.67 243.884L2342.93 542H2265.39ZM2327.09 455.186L2346.75 397.856H2541.12L2560.23 455.186H2327.09ZM2827.74 548.552C2789.52 548.552 2756.58 540.362 2728.92 523.982C2701.62 507.238 2680.51 484.124 2665.58 454.64C2651.02 424.792 2643.74 390.394 2643.74 351.446C2643.74 312.498 2651.02 278.1 2665.58 248.252C2680.51 218.404 2701.62 195.108 2728.92 178.364C2756.58 161.62 2789.52 153.248 2827.74 153.248C2873.97 153.248 2911.83 164.714 2941.31 187.646C2970.8 210.578 2989.18 242.974 2996.46 284.834H2916.2C2911.46 264.45 2901.45 248.616 2886.17 237.332C2871.24 225.684 2851.59 219.86 2827.2 219.86C2804.63 219.86 2785.16 225.32 2768.78 236.24C2752.76 246.796 2740.38 261.902 2731.65 281.558C2722.91 300.85 2718.54 324.146 2718.54 351.446C2718.54 378.382 2722.91 401.678 2731.65 421.334C2740.38 440.99 2752.76 456.096 2768.78 466.652C2785.16 477.208 2804.63 482.486 2827.2 482.486C2851.59 482.486 2871.24 477.208 2886.17 466.652C2901.09 455.732 2910.92 440.626 2915.65 421.334H2996.46C2989.18 461.01 2970.8 492.132 2941.31 514.7C2911.83 537.268 2873.97 548.552 2827.74 548.552ZM3059.4 542V159.8H3133.11V484.67H3300.73V542H3059.4ZM3363.86 542V159.8H3615.02V219.314H3437.57V319.232H3598.64V376.562H3437.57V482.486H3615.02V542H3363.86Z" fill="white"/>
<path d="M1300.12 1168.55C1261.9 1168.55 1228.96 1160.36 1201.29 1143.98C1173.99 1127.24 1152.88 1104.12 1137.96 1074.64C1123.4 1044.79 1116.12 1010.39 1116.12 971.446C1116.12 932.498 1123.4 898.1 1137.96 868.252C1152.88 838.404 1173.99 815.108 1201.29 798.364C1228.96 781.62 1261.9 773.248 1300.12 773.248C1346.35 773.248 1384.2 784.714 1413.69 807.646C1443.17 830.578 1461.55 862.974 1468.83 904.834H1388.57C1383.84 884.45 1373.83 868.616 1358.54 857.332C1343.62 845.684 1323.96 839.86 1299.57 839.86C1277 839.86 1257.53 845.32 1241.15 856.24C1225.13 866.796 1212.76 881.902 1204.02 901.558C1195.29 920.85 1190.92 944.146 1190.92 971.446C1190.92 998.382 1195.29 1021.68 1204.02 1041.33C1212.76 1060.99 1225.13 1076.1 1241.15 1086.65C1257.53 1097.21 1277 1102.49 1299.57 1102.49C1323.96 1102.49 1343.62 1097.21 1358.54 1086.65C1373.46 1075.73 1383.29 1060.63 1388.02 1041.33H1468.83C1461.55 1081.01 1443.17 1112.13 1413.69 1134.7C1384.2 1157.27 1346.35 1168.55 1300.12 1168.55ZM1502.38 1162L1642.16 779.8H1725.7L1864.93 1162H1786.85L1683.65 863.884L1579.91 1162H1502.38ZM1564.08 1075.19L1583.74 1017.86H1778.11L1797.22 1075.19H1564.08ZM1915.15 1162V779.8H2058.2C2089.14 779.8 2114.8 785.078 2135.19 795.634C2155.57 806.19 2170.68 820.386 2180.5 838.222C2190.33 856.058 2195.25 876.442 2195.25 899.374C2195.25 920.486 2190.51 939.96 2181.05 957.796C2171.59 975.632 2156.66 990.192 2136.28 1001.48C2115.89 1012.4 2089.87 1017.86 2058.2 1017.86H1988.86V1162H1915.15ZM1988.86 958.342H2053.83C2077.49 958.342 2094.42 953.064 2104.61 942.508C2115.17 931.588 2120.44 917.21 2120.44 899.374C2120.44 880.446 2115.17 865.886 2104.61 855.694C2094.42 845.138 2077.49 839.86 2053.83 839.86H1988.86V958.342ZM2250.53 1162V779.8H2324.24V1162H2250.53ZM2488.3 1162V839.314H2376.37V779.8H2672.84V839.314H2561.46V1162H2488.3ZM2658.9 1162L2798.67 779.8H2882.21L3021.44 1162H2943.36L2840.17 863.884L2736.43 1162H2658.9ZM2720.6 1075.19L2740.25 1017.86H2934.63L2953.74 1075.19H2720.6ZM3071.67 1162V779.8H3145.38V1104.67H3313V1162H3071.67Z" fill="white"/>
</svg>
